<svg
   width="210mm"
   height="297mm"
   viewBox="0 0 210 297"
   version="1.1"
   xmlns="http://www.w3.org/2000/svg">
  <g id="layer1">
    <path
       style="fill:#dc7b36;stroke:none"
       d="m 43.066827,0.58021882 c -3.46378,0.47038398 -6.65258,2.75178598 -9.78958,4.14984298 -7.46924,3.328802 -14.72638,7.1228192 -22.225,10.3942772 -2.4140401,1.053181 -4.7402201,2.292721 -7.1437501,3.364055 -1.20269,0.536078 -2.60891,0.94605 -3.02353006,2.34858 -0.63217,2.138387 -0.58302,6.516431 1.20023006,8.057955 2.49708,2.158605 6.53418,3.273137 9.4962101,4.70635 7.03143,3.402231 14.1336,6.660188 21.16667,10.054167 3.42056,1.650674 7.97548,4.868614 11.90625,4.38053 3.76293,-0.467252 7.9879,-3.26981 11.37708,-4.909697 6.95785,-3.366639 13.987113,-6.601955 20.902083,-10.057235 2.69033,-1.344298 8.74498,-2.792045 9.43396,-6.150739 0.35117,-1.711959 0.65869,-5.764263 -0.7419,-6.996343 -2.43698,-2.143764 -6.55843,-3.343077 -9.48581,-4.72413 C 69.084457,11.869353 61.960147,8.6253188 54.973077,5.1569418 51.803937,3.5837818 46.713327,0.08501282 43.066827,0.58021882 M 67.673077,22.155805 v 0.79375 l -17.19792,8.049784 -6.87916,2.727498 -6.87917,-2.687482 -17.4625,-8.354383 v -0.529167 c 5.60977,-3.192537 11.85906,-5.589306 17.72708,-8.283748 1.87452,-0.860719 4.48277,-2.963724 6.61459,-2.760975 2.61876,0.249048 5.61624,2.410447 7.9375,3.571068 5.19278,2.596401 10.64376,5.602242 16.13958,7.473655 M 3.9084969,35.649555 v 23.8125 c 0,2.782582 -0.86103,7.325807 0.58959,9.788557 1.26347,2.14501 4.1179,3.13445 6.2895701,4.08205 3.84837,1.67921 7.54485,3.69466 11.37709,5.40722 4.3642,1.9503 8.68923,4.04981 12.96458,6.18751 2.18554,1.09276 4.68253,2.75332 7.14375,3.06066 4.00576,0.50021 7.93448,-2.13422 11.37708,-3.85441 5.91739,-2.95682 11.949,-5.87574 17.991673,-8.56876 3.18624,-1.41999 7.64394,-2.76066 10.23831,-5.13037 1.88619,-1.72286 1.60529,-4.91645 1.66119,-7.2789 0.15117,-6.390259 -0.25784,-12.886778 -0.25784,-19.303973 v -6.085417 c -0.001,-0.585219 0.16732,-1.706194 -0.42423,-2.081559 -0.75428,-0.478621 -2.08724,0.538242 -2.75077,0.854599 -2.38136,1.135396 -4.78335,2.231792 -7.14375,3.408949 -6.443323,3.21337 -13.014623,6.316572 -19.579163,9.275936 -2.79868,1.26168 -5.87958,3.37003 -8.99583,3.599441 -3.77368,0.277809 -7.25672,-2.088196 -10.58334,-3.599635 -6.45646,-2.933461 -12.96913,-5.873107 -19.31458,-9.039726 C 11.378477,38.630543 7.4258269,35.832038 3.9084969,35.649555 M 15.561797,50.096913 c 2.02673,-0.785869 4.85792,1.455095 6.60295,2.279367 3.12312,1.475201 8.97073,2.878732 10.77421,6.031318 0.88469,1.546498 0.60287,3.578948 0.60287,5.287794 0,2.10216 0.93617,7.30565 -1.59914,8.26638 -1.94061,0.73537 -5.18948,-1.5412 -6.86753,-2.38022 -2.83996,-1.41998 -8.57301,-2.86562 -10.29507,-5.64629 -0.94093,-1.519382 -0.84768,-4.066206 -0.81375,-5.796123 0.0391,-1.99526 -0.77937,-7.121384 1.59546,-8.042226 m 54.492533,-0.07269 c 1.37288,-0.210194 2.47888,0.361557 2.80609,1.765929 0.68282,2.930603 0.66743,8.558925 -0.42321,11.37586 -0.69142,1.7858 -2.32896,2.46553 -3.970383,3.17521 -3.73288,1.61391 -8.61483,5.24053 -12.7,5.49561 -1.20233,0.0751 -2.04844,-0.62989 -2.2902,-1.79247 -0.56274,-2.70605 -0.87519,-8.873694 0.32501,-11.375851 0.79234,-1.651869 2.53991,-2.338907 4.08186,-3.109887 3.62453,-1.812261 8.15116,-4.918999 12.170833,-5.534401"
       id="path1" />
  </g>
</svg>